<svg width="109" height="204" viewBox="0 0 109 204" fill="none" xmlns="http://www.w3.org/2000/svg">
<path d="M83.015 137.051C82.272 159.143 81.3601 181.226 79.831 203.32H109C107.477 181.226 106.559 159.143 105.822 137.051L104.929 103.918L104.394 70.7855L104.302 65.2311L99.8409 62.4094L79.7327 49.7132L59.8364 36.7038C46.5414 28.0698 33.3233 19.3191 20.1542 10.4977L4.48588 0L4.34158 19.098C4.22184 34.4501 4.02226 49.8022 3.73978 65.1543C3.51257 80.5034 3.2485 95.8555 2.87084 111.208C2.21684 141.912 1.32949 172.616 0 203.32H29.169C27.8365 172.616 26.9552 141.912 26.2951 111.208C25.9174 95.8555 25.6534 80.5034 25.4261 65.1543C25.2634 56.0382 25.1836 46.9252 25.0731 37.8091C33.1237 42.903 41.1621 48.0153 49.1667 53.1828L69.1797 66.0171L84.3507 76.082L83.9085 103.918L83.015 137.051Z" fill="#BC8417"/>
<path d="M33.7651 137.708L54.5396 158.482L75.311 137.708L54.5396 116.936L33.7651 137.708Z" fill="#BC8417"/>
</svg>
