<svg width="607" height="605" viewBox="0 0 607 605" fill="none" xmlns="http://www.w3.org/2000/svg">
<g filter="url(#filter0_d)">
<path d="M450.641 358.317L398.155 427.095C385.935 416.06 373.728 405.013 361.808 393.655L330.236 364.087C343.79 349.834 357.148 335.393 371.095 321.543C386.835 305.58 403.034 290.07 420.036 275.377L436.204 261.4L420.483 244.191L316.179 130.097L297.812 110L279.513 130.097L175.473 244.448L159.739 261.748L176.348 275.542C194.831 290.906 213.008 306.594 230.597 322.911C245.627 336.412 260.198 350.408 274.842 364.325L214.238 429.751L152.386 354.567L114 396.006L195.584 469.114L215.543 487L232.654 468.381C247.837 451.869 262.64 434.972 278.234 418.869L303.867 391.872L335.249 421.672C352.777 438.05 369.699 455.069 386.859 471.825L400.824 485.455L416.166 470.512L493 395.677L450.641 358.317ZM222.179 259.836L297.58 183.505L370.936 259.989L341.598 292.116L300.69 336.4C286.051 322.691 271.34 309.061 257.094 294.949C245.186 283.536 233.621 271.756 222.179 259.836Z" fill="#BC8417"/>
</g>
<defs>
<filter id="filter0_d" x="0" y="0" width="607" height="605" filterUnits="userSpaceOnUse" color-interpolation-filters="sRGB">
<feFlood flood-opacity="0" result="BackgroundImageFix"/>
<feColorMatrix in="SourceAlpha" type="matrix" values="0 0 0 0 0 0 0 0 0 0 0 0 0 0 0 0 0 0 127 0"/>
<feOffset dy="4"/>
<feGaussianBlur stdDeviation="57"/>
<feColorMatrix type="matrix" values="0 0 0 0 0 0 0 0 0 0 0 0 0 0 0 0 0 0 0.09 0"/>
<feBlend mode="normal" in2="BackgroundImageFix" result="effect1_dropShadow"/>
<feBlend mode="normal" in="SourceGraphic" in2="effect1_dropShadow" result="shape"/>
</filter>
</defs>
</svg>
